<svg width="95" height="39" viewBox="0 0 95 39" fill="none" xmlns="http://www.w3.org/2000/svg">
<path fill-rule="evenodd" clip-rule="evenodd" d="M1.41412 19.187C0.633118 18.406 0.633118 17.1396 1.41412 16.3586L16.3585 1.41426C16.7559 1.01674 17.2791 0.821552 17.8001 0.828632C18.3215 0.821247 18.8449 1.01644 19.2426 1.4142L32.8006 14.9722L46.3585 1.41433C46.7559 1.0168 47.2791 0.821613 47.8001 0.828693C48.3215 0.821308 48.8449 1.0165 49.2426 1.41426L62.8006 14.9722L76.3585 1.41433C76.7559 1.0168 77.2791 0.821613 77.8001 0.828693C78.3215 0.821308 78.8449 1.0165 79.2426 1.41426L94.187 16.3586C94.968 17.1397 94.968 18.406 94.187 19.187C93.4059 19.9681 92.1396 19.9681 91.3586 19.187L77.8006 5.62905L64.2426 19.187C63.8449 19.5847 63.3216 19.7799 62.8005 19.7727C62.2794 19.7799 61.7562 19.5847 61.3586 19.187L47.8006 5.62905L34.2426 19.187C33.8444 19.5852 33.3201 19.7804 32.7983 19.7726C32.2779 19.7792 31.7556 19.584 31.3586 19.187L17.8006 5.62899L4.24261 19.187C3.46149 19.968 2.19525 19.968 1.41412 19.187ZM1.41412 35.3586C0.633118 36.1396 0.633118 37.406 1.41412 38.187C2.19525 38.968 3.46149 38.968 4.24261 38.187L17.8006 24.629L31.3586 38.187C31.7556 38.584 32.2779 38.7792 32.7983 38.7726C33.3201 38.7804 33.8444 38.5852 34.2426 38.187L47.8006 24.629L61.3586 38.187C61.7562 38.5847 62.2794 38.7799 62.8005 38.7727C63.3216 38.7799 63.8449 38.5847 64.2426 38.187L77.8006 24.629L91.3586 38.187C92.1396 38.9681 93.4059 38.9681 94.187 38.187C94.968 37.406 94.968 36.1397 94.187 35.3586L79.2426 20.4143C78.8449 20.0165 78.3215 19.8213 77.8001 19.8287C77.2791 19.8216 76.7559 20.0168 76.3585 20.4143L62.8006 33.9722L49.2426 20.4143C48.8449 20.0165 48.3215 19.8213 47.8001 19.8287C47.2791 19.8216 46.7559 20.0168 46.3585 20.4143L32.8006 33.9722L19.2426 20.4142C18.8449 20.0164 18.3215 19.8212 17.8001 19.8286C17.2791 19.8216 16.7559 20.0167 16.3585 20.4143L1.41412 35.3586Z" fill="#C42222"/>
</svg>
