<svg width="142" height="50" viewBox="0 0 142 50" fill="none" xmlns="http://www.w3.org/2000/svg">
<path fill-rule="evenodd" clip-rule="evenodd" d="M7.544 19.4L7.496 13.4C7.496 9.01602 7.672 6.18402 8.024 4.90402V4.76002C8.088 4.40802 8.408 4.16802 8.984 4.04002L10.472 3.94402C13.928 3.94402 15.656 5.44802 15.656 8.45602C15.656 11.24 14.696 13.08 12.776 13.976C11.816 14.424 10.904 14.648 10.04 14.648C9.4 14.712 9.08 15.64 9.08 17.432C9.08 17.784 9.208 17.96 9.464 17.96C11.768 17.96 13.432 18.168 14.456 18.584C15.864 19.192 16.824 20.392 17.336 22.184C17.592 23.08 17.72 23.848 17.72 24.488C17.72 26.408 17.32 27.944 16.52 29.096C15.752 30.248 14.936 30.824 14.072 30.824C13.24 30.824 12.584 30.504 12.104 29.864C11.656 29.192 11.432 28.248 11.432 27.032C11.432 26.648 10.952 26.456 9.992 26.456C9.064 26.456 8.28 26.904 7.64 27.8C7.608 27.864 7.56 27.896 7.496 27.896C7.432 27.896 7.384 27.832 7.352 27.704L7.544 19.4ZM0.536004 35.144L0.440004 35.672C0.440004 35.96 0.664004 36.104 1.112 36.104C4.28 36.008 6.2 34.84 6.872 32.6L7.064 32.408C7.128 32.408 7.176 32.456 7.208 32.552C8.104 34.696 10.232 35.768 13.592 35.768C14.936 35.768 16.152 35.576 17.24 35.192C19.192 34.52 20.68 33.4 21.704 31.832C22.952 29.912 23.576 27.88 23.576 25.736C23.576 24.072 23.304 22.6 22.76 21.32C22.216 20.04 21.608 19.096 20.936 18.488C19.592 17.208 17.928 16.408 15.944 16.088C15.784 15.992 15.704 15.912 15.704 15.848C15.704 15.752 15.8 15.672 15.992 15.608C19.832 14.904 21.752 12.232 21.752 7.59202C21.656 6.31202 21.256 5.20802 20.552 4.28002C19.88 3.35202 19.112 2.66402 18.248 2.21602C17.416 1.76802 16.344 1.40002 15.032 1.11202C13.72 0.792019 12.504 0.632019 11.384 0.632019C6.872 0.632019 3.304 1.14402 0.680004 2.16802C0.296004 2.32802 0.104004 2.52002 0.104004 2.74402C0.104004 2.96802 0.168004 3.16002 0.296004 3.32002C0.936004 4.28002 1.32 5.84802 1.448 8.02402C1.608 10.168 1.688 13.032 1.688 16.616C1.688 20.168 1.576 24.008 1.352 28.136C1.128 32.232 0.856004 34.568 0.536004 35.144ZM30.0793 24.008L30.0313 22.808C30.0313 20.44 30.5593 18.552 31.6153 17.144C32.2553 16.248 33.0873 15.8 34.1113 15.8C35.4873 15.8 36.1753 16.664 36.1753 18.392L36.1273 18.968C36.0633 19.832 35.6473 20.856 34.8793 22.04C34.4953 22.584 33.9193 23.08 33.1513 23.528C32.3833 23.944 31.4873 24.2 30.4633 24.296C30.2073 24.296 30.0793 24.2 30.0793 24.008ZM39.7273 32.408C40.2393 31.48 40.4953 30.408 40.4953 29.192C40.4953 29 40.4313 28.728 40.3033 28.376C40.1753 28.024 39.9993 27.848 39.7753 27.848C39.5833 27.848 39.4233 27.976 39.2953 28.232C38.9753 28.936 38.5593 29.528 38.0473 30.008C37.0873 30.904 35.9193 31.352 34.5433 31.352C33.1673 31.352 32.1273 30.904 31.4233 30.008C31.1673 29.624 30.9273 29.16 30.7033 28.616C30.5113 28.04 30.4153 27.608 30.4153 27.32C30.4153 27.096 30.5433 26.984 30.7993 26.984C32.6553 26.792 34.2713 26.408 35.6473 25.832C37.0233 25.256 38.0313 24.648 38.6713 24.008C39.3113 23.368 39.8233 22.648 40.2073 21.848C40.5913 21.048 40.8153 20.456 40.8793 20.072C40.9433 19.656 40.9753 19.112 40.9753 18.44C40.9753 17.736 40.7673 17 40.3513 16.232C39.3273 14.216 37.3753 13.208 34.4953 13.208C31.3273 13.208 28.9433 14.424 27.3433 16.856C25.7753 19.288 24.9913 22.072 24.9913 25.208C24.9913 28.312 25.6313 30.872 26.9113 32.888C28.1913 34.904 30.1753 35.912 32.8633 35.912C33.8233 35.912 34.8313 35.752 35.8873 35.432C36.7193 35.176 37.4393 34.84 38.0473 34.424C38.6873 33.976 39.2473 33.304 39.7273 32.408ZM47.7511 24.008L47.7031 22.808C47.7031 20.44 48.2311 18.552 49.2871 17.144C49.9271 16.248 50.7591 15.8 51.7831 15.8C53.1591 15.8 53.8471 16.664 53.8471 18.392L53.7991 18.968C53.7351 19.832 53.3191 20.856 52.5511 22.04C52.1671 22.584 51.5911 23.08 50.8231 23.528C50.0551 23.944 49.1591 24.2 48.1351 24.296C47.8791 24.296 47.7511 24.2 47.7511 24.008ZM57.3991 32.408C57.9111 31.48 58.1671 30.408 58.1671 29.192C58.1671 29 58.1031 28.728 57.9751 28.376C57.8471 28.024 57.6711 27.848 57.4471 27.848C57.2551 27.848 57.0951 27.976 56.9671 28.232C56.6471 28.936 56.2311 29.528 55.7191 30.008C54.7591 30.904 53.5911 31.352 52.2151 31.352C50.8391 31.352 49.7991 30.904 49.0951 30.008C48.8391 29.624 48.5991 29.16 48.3751 28.616C48.1831 28.04 48.0871 27.608 48.0871 27.32C48.0871 27.096 48.2151 26.984 48.4711 26.984C50.3271 26.792 51.9431 26.408 53.3191 25.832C54.6951 25.256 55.7031 24.648 56.3431 24.008C56.9831 23.368 57.4951 22.648 57.8791 21.848C58.2631 21.048 58.4871 20.456 58.5511 20.072C58.6151 19.656 58.6471 19.112 58.6471 18.44C58.6471 17.736 58.4391 17 58.0231 16.232C56.9991 14.216 55.0471 13.208 52.1671 13.208C48.9991 13.208 46.6151 14.424 45.0151 16.856C43.4471 19.288 42.6631 22.072 42.6631 25.208C42.6631 28.312 43.3031 30.872 44.5831 32.888C45.8631 34.904 47.8471 35.912 50.5351 35.912C51.4951 35.912 52.5031 35.752 53.5591 35.432C54.3911 35.176 55.1111 34.84 55.7191 34.424C56.3591 33.976 56.9191 33.304 57.3991 32.408ZM61.391 19.688C61.391 21.768 61.359 24.424 61.295 27.656C61.007 38.664 60.607 45.784 60.095 49.016C60.095 49.432 60.255 49.64 60.575 49.64C61.407 49.64 62.367 49.304 63.455 48.632C64.543 47.992 65.407 47.256 66.047 46.424C66.239 46.168 66.335 45.88 66.335 45.56C66.335 45.24 66.255 44.264 66.095 42.632C65.967 41.032 65.903 38.376 65.903 34.664C65.903 26.44 66.127 20.888 66.575 18.008L66.767 17.528C66.895 17.24 67.183 16.952 67.631 16.664C68.111 16.344 68.687 16.184 69.359 16.184C71.791 16.184 73.007 18.6 73.007 23.432C73.007 28.232 71.871 30.632 69.599 30.632C69.311 30.632 69.007 30.568 68.687 30.44C68.399 30.28 68.223 30.2 68.159 30.2C67.839 30.2 67.679 30.584 67.679 31.352C67.679 34.2 68.911 35.624 71.375 35.624C72.623 35.624 73.711 35.224 74.639 34.424C75.567 33.592 76.271 32.536 76.751 31.256C77.615 28.888 78.047 26.52 78.047 24.152C78.047 21.752 77.615 19.48 76.751 17.336C76.271 16.088 75.455 15.08 74.303 14.312C73.183 13.544 71.855 13.16 70.319 13.16C68.815 13.16 67.439 13.56 66.191 14.36C65.775 14.648 65.519 14.792 65.423 14.792C65.359 14.792 65.071 14.536 64.559 14.024C64.367 13.832 64.031 13.656 63.551 13.496C63.103 13.336 62.559 13.256 61.919 13.256C61.279 13.256 60.959 13.416 60.959 13.736C61.247 15.624 61.391 17.608 61.391 19.688ZM85.0168 24.008L84.9688 22.808C84.9688 20.44 85.4968 18.552 86.5528 17.144C87.1928 16.248 88.0248 15.8 89.0488 15.8C90.4248 15.8 91.1128 16.664 91.1128 18.392L91.0648 18.968C91.0008 19.832 90.5848 20.856 89.8168 22.04C89.4328 22.584 88.8568 23.08 88.0888 23.528C87.3208 23.944 86.4248 24.2 85.4008 24.296C85.1448 24.296 85.0168 24.2 85.0168 24.008ZM94.6648 32.408C95.1768 31.48 95.4328 30.408 95.4328 29.192C95.4328 29 95.3688 28.728 95.2408 28.376C95.1128 28.024 94.9368 27.848 94.7128 27.848C94.5208 27.848 94.3608 27.976 94.2328 28.232C93.9128 28.936 93.4968 29.528 92.9848 30.008C92.0248 30.904 90.8568 31.352 89.4808 31.352C88.1048 31.352 87.0648 30.904 86.3608 30.008C86.1048 29.624 85.8648 29.16 85.6408 28.616C85.4488 28.04 85.3528 27.608 85.3528 27.32C85.3528 27.096 85.4808 26.984 85.7368 26.984C87.5928 26.792 89.2088 26.408 90.5848 25.832C91.9608 25.256 92.9688 24.648 93.6088 24.008C94.2488 23.368 94.7608 22.648 95.1448 21.848C95.5288 21.048 95.7528 20.456 95.8168 20.072C95.8808 19.656 95.9128 19.112 95.9128 18.44C95.9128 17.736 95.7048 17 95.2888 16.232C94.2648 14.216 92.3128 13.208 89.4328 13.208C86.2648 13.208 83.8808 14.424 82.2808 16.856C80.7128 19.288 79.9288 22.072 79.9288 25.208C79.9288 28.312 80.5688 30.872 81.8488 32.888C83.1288 34.904 85.1128 35.912 87.8008 35.912C88.7608 35.912 89.7688 35.752 90.8248 35.432C91.6568 35.176 92.3768 34.84 92.9848 34.424C93.6248 33.976 94.1848 33.304 94.6648 32.408ZM112.444 23.816L112.252 22.136L112.492 18.488C112.492 16.152 111.58 14.616 109.756 13.88C108.86 13.528 107.964 13.352 107.068 13.352C105.628 13.352 104.38 13.784 103.324 14.648C102.972 14.936 102.748 15.08 102.652 15.08C102.588 15.08 102.54 15.016 102.508 14.888C101.932 13.704 100.78 13.112 99.0519 13.112C98.3799 13.112 98.0439 13.304 98.0439 13.688C98.3639 15.288 98.5239 18.328 98.5239 22.808C98.5239 27.288 98.2999 30.92 97.8519 33.704L97.6119 35.192C97.6119 35.608 98.1079 35.816 99.0999 35.816C100.092 35.816 101.084 35.56 102.076 35.048C103.068 34.568 103.564 33.928 103.564 33.128C103.564 33.032 103.532 32.744 103.468 32.264C103.404 31.752 103.34 30.84 103.276 29.528C103.212 28.184 103.18 26.36 103.18 24.056C103.18 21.72 103.276 20.056 103.468 19.064L103.66 18.392C103.756 17.944 104.012 17.512 104.428 17.096C104.876 16.648 105.404 16.424 106.012 16.424C106.62 16.424 107.084 16.632 107.404 17.048C107.724 17.432 107.884 17.896 107.884 18.44C107.884 18.984 107.772 19.624 107.548 20.36C107.324 21.096 107.212 21.672 107.212 22.088C107.212 23.848 108.38 24.728 110.716 24.728C111.868 24.728 112.444 24.424 112.444 23.816ZM123.414 11.8995C122.633 12.6806 122.633 13.9469 123.414 14.7279C124.195 15.509 125.462 15.509 126.243 14.7279L134.728 6.24266C135.509 5.46162 135.509 4.19529 134.728 3.41424C133.947 2.63319 132.681 2.63319 131.899 3.41424L123.414 11.8995ZM124 22C122.895 22 122 22.8954 122 24C122 25.1046 122.895 26 124 26H140C141.105 26 142 25.1046 142 24C142 22.8954 141.105 22 140 22H124ZM122.414 33.4142C123.195 32.6332 124.462 32.6332 125.243 33.4142L133.728 41.8995C134.509 42.6806 134.509 43.9469 133.728 44.7279C132.947 45.509 131.68 45.509 130.899 44.7279L122.414 36.2426C121.633 35.4616 121.633 34.1953 122.414 33.4142Z" fill="white"/>
</svg>
