<svg width="41" height="56" viewBox="0 0 41 56" fill="none" xmlns="http://www.w3.org/2000/svg">
<path fill-rule="evenodd" clip-rule="evenodd" d="M21 11.111C21 17.2474 16.299 22.222 10.5 22.222C4.70102 22.222 0 17.2474 0 11.111C0 4.97455 4.70102 0 10.5 0C16.299 0 21 4.97455 21 11.111ZM41 39.6821C41 48.1562 34.5081 55.0259 26.5 55.0259C18.4919 55.0259 12 48.1562 12 39.6821C12 31.208 18.4919 24.3384 26.5 24.3384C34.5081 24.3384 41 31.208 41 39.6821ZM33 19.0474C36.3137 19.0474 39 16.2048 39 12.6982C39 9.19171 36.3137 6.34912 33 6.34912C29.6863 6.34912 27 9.19171 27 12.6982C27 16.2048 29.6863 19.0474 33 19.0474Z" fill="#B872FC"/>
</svg>
